<?xml version="1.0" encoding="UTF-8"?>
<svg width="310px" height="90px" viewBox="0 0 310 90" version="1.1" xmlns="http://www.w3.org/2000/svg" xmlns:xlink="http://www.w3.org/1999/xlink">
    <!-- Generator: Sketch 48.2 (47327) - http://www.bohemiancoding.com/sketch -->
    <title>Page 1</title>
    <desc>Created with Sketch.</desc>
    <defs>
        <polygon id="path-1" points="0.9138 0.5302 39.0708 0.5302 39.0708 66 0.9138 66"></polygon>
        <polygon id="path-3" points="0.4583 0.866 38.6143 0.866 38.6143 66.3357 0.4583 66.3357"></polygon>
    </defs>
    <g id="Page-1" stroke="none" stroke-width="1" fill="none" fill-rule="evenodd">
        <g transform="translate(0.000000, -1.000000)">
            <polygon id="Fill-1" fill="#FFFFFF" points="8.298 18.0975 0 65.0985 31.333 65.0985 33.657 51.9535 17.791 51.9535 23.766 18.0975"></polygon>
            <g id="Group-20" transform="translate(35.000000, 0.134300)">
                <path d="M30.0581,43.8514 C30.0581,42.1264 29.5491,40.6444 28.5311,39.4054 C27.5131,38.1644 25.9861,37.5464 23.9511,37.5464 C22.7561,37.5464 21.6821,37.7784 20.7311,38.2434 C19.7791,38.7074 18.9821,39.3494 18.3421,40.1674 C17.6991,40.9874 17.2011,41.9384 16.8481,43.0224 C16.4931,44.1084 16.3161,45.2694 16.3161,46.5084 C16.3161,48.2784 16.8481,49.7714 17.9101,50.9904 C18.9721,52.2064 20.4541,52.8144 22.3581,52.8144 C23.5961,52.8144 24.7031,52.5824 25.6771,52.1184 C26.6501,51.6524 27.4581,51.0124 28.1001,50.1934 C28.7411,49.3724 29.2281,48.4234 29.5601,47.3384 C29.8931,46.2524 30.0581,45.0924 30.0581,43.8514 M20.9641,66.2894 C17.7321,66.2894 14.8781,65.8474 12.4001,64.9634 C9.9211,64.0794 7.8291,62.8304 6.1261,61.2124 C4.4221,59.5974 3.1401,57.6704 2.2761,55.4374 C1.4131,53.2034 0.9811,50.7344 0.9811,48.0354 C0.9811,44.7154 1.5681,41.6064 2.7411,38.7074 C3.9131,35.8094 5.5621,33.2874 7.6861,31.1404 C9.8111,28.9944 12.3771,27.3004 15.3871,26.0614 C18.3961,24.8224 21.7371,24.2034 25.4121,24.2034 C28.6411,24.2034 31.5071,24.6454 34.0091,25.5304 C36.5081,26.4164 38.5991,27.6544 40.2821,29.2474 C41.9631,30.8404 43.2361,32.7554 44.0991,34.9904 C44.9621,37.2254 45.3931,39.6704 45.3931,42.3264 C45.3931,45.6454 44.8181,48.7654 43.6671,51.6864 C42.5161,54.6064 40.8791,57.1534 38.7551,59.3204 C36.6311,61.4904 34.0631,63.1924 31.0541,64.4314 C28.0441,65.6704 24.6811,66.2894 20.9641,66.2894" id="Fill-2" fill="#FFFFFF"></path>
                <path d="M52.0269,50.6903 C53.2659,51.9753 54.6709,52.9603 56.2419,53.6433 C57.8129,54.3313 59.3059,54.6733 60.7239,54.6733 C62.6699,54.6733 63.6449,54.0763 63.6449,52.8823 C63.6449,52.2613 63.2789,51.7523 62.5489,51.3543 C61.8189,50.9563 60.8779,50.5803 59.7269,50.2253 C58.0449,49.7393 56.5629,49.1753 55.2799,48.5343 C53.9949,47.8923 52.9009,47.1183 51.9939,46.2093 C51.0859,45.3033 50.4009,44.2513 49.9359,43.0563 C49.4709,41.8613 49.2389,40.4653 49.2389,38.8753 C49.2389,36.3963 49.7799,34.2383 50.8649,32.4013 C51.9489,30.5653 53.3549,29.0383 55.0809,27.8193 C56.8059,26.6043 58.7539,25.6973 60.9229,25.0973 C63.0899,24.5023 65.2589,24.2033 67.4279,24.2033 C70.3499,24.2033 73.1929,24.6343 75.9589,25.4963 C78.7189,26.3583 80.9629,27.5853 82.6879,29.1713 C82.6929,29.1763 82.6939,29.1843 82.6889,29.1903 L74.4649,39.0723 C73.6679,38.1883 72.6059,37.4363 71.2779,36.8153 C69.9509,36.1973 68.5789,35.8873 67.1629,35.8873 C66.1449,35.8873 65.3469,36.0303 64.7729,36.3183 C64.1969,36.6063 63.9099,37.0603 63.9099,37.6793 C63.9099,38.1653 64.1089,38.5413 64.5069,38.8063 C64.9059,39.0723 65.7459,39.3833 67.0299,39.7373 C68.7999,40.2243 70.4159,40.7883 71.8769,41.4293 C73.3369,42.0713 74.5749,42.8793 75.5939,43.8513 C76.6109,44.8273 77.4079,45.9673 77.9839,47.2723 C78.5589,48.5783 78.8469,50.0923 78.8469,51.8193 C78.8469,54.4733 78.2709,56.7213 77.1209,58.5573 C75.9699,60.3933 74.4989,61.8863 72.7059,63.0373 C70.9129,64.1903 68.9329,65.0183 66.7639,65.5293 C64.5959,66.0363 62.4929,66.2903 60.4579,66.2903 C59.0859,66.2903 57.6699,66.1913 56.2089,65.9923 C54.7489,65.7933 53.2879,65.4833 51.8279,65.0623 C50.3669,64.6423 48.9499,64.0893 47.5789,63.4033 L43.5049,61.3623 L52.0269,50.6903 Z" id="Fill-4" fill="#FFFFFF"></path>
                <path d="M87.1396,50.6903 C88.3786,51.9753 89.7836,52.9603 91.3546,53.6433 C92.9256,54.3313 94.4186,54.6733 95.8366,54.6733 C97.7826,54.6733 98.7576,54.0763 98.7576,52.8823 C98.7576,52.2613 98.3916,51.7523 97.6606,51.3543 C96.9316,50.9563 95.9906,50.5803 94.8396,50.2253 C93.1576,49.7393 91.6756,49.1753 90.3926,48.5343 C89.1076,47.8923 88.0126,47.1183 87.1066,46.2093 C86.1986,45.3033 85.5136,44.2513 85.0476,43.0563 C84.5836,41.8613 84.3516,40.4653 84.3516,38.8753 C84.3516,36.3963 84.8926,34.2383 85.9776,32.4013 C87.0616,30.5653 88.4676,29.0383 90.1936,27.8193 C91.9186,26.6043 93.8666,25.6973 96.0356,25.0973 C98.2026,24.5023 100.3716,24.2033 102.5406,24.2033 C105.4616,24.2033 108.3056,24.6343 111.0716,25.4963 C113.8316,26.3583 116.0756,27.5853 117.8006,29.1713 C117.8056,29.1763 117.8056,29.1843 117.8016,29.1903 L109.5776,39.0723 C108.7806,38.1883 107.7186,37.4363 106.3906,36.8153 C105.0636,36.1973 103.6916,35.8873 102.2756,35.8873 C101.2576,35.8873 100.4596,36.0303 99.8856,36.3183 C99.3096,36.6063 99.0216,37.0603 99.0216,37.6793 C99.0216,38.1653 99.2216,38.5413 99.6196,38.8063 C100.0186,39.0723 100.8586,39.3833 102.1426,39.7373 C103.9126,40.2243 105.5286,40.7883 106.9886,41.4293 C108.4496,42.0713 109.6876,42.8793 110.7066,43.8513 C111.7236,44.8273 112.5206,45.9673 113.0966,47.2723 C113.6706,48.5783 113.9596,50.0923 113.9596,51.8193 C113.9596,54.4733 113.3836,56.7213 112.2336,58.5573 C111.0816,60.3933 109.6116,61.8863 107.8186,63.0373 C106.0256,64.1903 104.0456,65.0183 101.8766,65.5293 C99.7086,66.0363 97.6056,66.2903 95.5706,66.2903 C94.1986,66.2903 92.7826,66.1913 91.3216,65.9923 C89.8616,65.7933 88.4006,65.4833 86.9406,65.0623 C85.4796,64.6423 84.0626,64.0893 82.6916,63.4033 L78.6176,61.3623 L87.1396,50.6903 Z" id="Fill-6" fill="#FFFFFF"></path>
                <polygon id="Fill-8" fill="#FFFFFF" points="164.2744 64.9637 149.2054 64.9637 147.6114 44.3837 147.4794 44.3837 137.9194 64.9637 122.9824 64.9637 118.6684 25.5297 134.2024 25.5297 134.9324 46.4407 135.1974 46.4407 143.6284 25.5297 158.0344 25.5297 159.2294 46.4407 159.4284 46.4407 167.5934 25.5297 183.4604 25.5297"></polygon>
                <path d="M212.335,50.6903 C213.574,51.9753 214.979,52.9603 216.551,53.6433 C218.121,54.3313 219.614,54.6733 221.032,54.6733 C222.979,54.6733 223.953,54.0763 223.953,52.8823 C223.953,52.2613 223.587,51.7523 222.857,51.3543 C222.127,50.9563 221.186,50.5803 220.036,50.2253 C218.353,49.7393 216.872,49.1753 215.588,48.5343 C214.304,47.8923 213.209,47.1183 212.302,46.2093 C211.394,45.3033 210.709,44.2513 210.244,43.0563 C209.779,41.8613 209.547,40.4653 209.547,38.8753 C209.547,36.3963 210.088,34.2383 211.173,32.4013 C212.257,30.5653 213.663,29.0383 215.389,27.8193 C217.114,26.6043 219.062,25.6973 221.231,25.0973 C223.399,24.5023 225.567,24.2033 227.736,24.2033 C230.658,24.2033 233.501,24.6343 236.267,25.4963 C239.028,26.3583 241.271,27.5853 242.996,29.1713 C243.001,29.1763 243.002,29.1843 242.997,29.1903 L234.773,39.0723 C233.977,38.1883 232.915,37.4363 231.587,36.8153 C230.259,36.1973 228.887,35.8873 227.471,35.8873 C226.453,35.8873 225.656,36.0303 225.081,36.3183 C224.505,36.6063 224.218,37.0603 224.218,37.6793 C224.218,38.1653 224.417,38.5413 224.815,38.8063 C225.214,39.0723 226.054,39.3833 227.338,39.7373 C229.108,40.2243 230.724,40.7883 232.185,41.4293 C233.645,42.0713 234.884,42.8793 235.902,43.8513 C236.919,44.8273 237.716,45.9673 238.292,47.2723 C238.867,48.5783 239.155,50.0923 239.155,51.8193 C239.155,54.4733 238.579,56.7213 237.429,58.5573 C236.278,60.3933 234.807,61.8863 233.014,63.0373 C231.221,64.1903 229.241,65.0183 227.072,65.5293 C224.904,66.0363 222.801,66.2903 220.766,66.2903 C219.394,66.2903 217.978,66.1913 216.518,65.9923 C215.057,65.7933 213.596,65.4833 212.136,65.0623 C210.675,64.6423 209.259,64.0893 207.887,63.4033 L203.813,61.3623 L212.335,50.6903 Z" id="Fill-10" fill="#FFFFFF"></path>
                <polygon id="Fill-12" fill="#FFFFFF" points="239.6865 64.9637 246.6565 25.5297 274.9355 25.5297 272.9465 36.5497 259.0705 36.5497 258.4735 40.0027 271.5525 40.0027 269.6925 50.2917 256.6145 50.2917 256.0175 53.8767 271.3525 53.8767 269.3595 64.9637"></polygon>
                <g id="Group-16" transform="translate(158.000000, 25.000000)">
                    <mask id="mask-2" fill="white">
                        <use xlink:href="#path-1"></use>
                    </mask>
                    <g id="Clip-15"></g>
                    <polygon id="Fill-14" fill="#6692FD" mask="url(#mask-2)" points="39.0708 0.5302 28.0718 0.5302 11.8188 47.1272 7.8058 42.9152 0.9138 49.4822 16.6528 66.0002"></polygon>
                </g>
                <g id="Group-19" transform="translate(185.000000, 0.000000)">
                    <mask id="mask-4" fill="white">
                        <use xlink:href="#path-3"></use>
                    </mask>
                    <g id="Clip-18"></g>
                    <polygon id="Fill-17" fill="#FDA266" mask="url(#mask-4)" points="38.6143 17.3837 22.8753 0.8657 0.4583 66.3357 11.4563 66.3357 27.7093 19.7387 31.7223 23.9507"></polygon>
                </g>
            </g>
        </g>
    </g>
</svg>
